<svg width="60" height="60" viewBox="0 0 60 60" fill="none" xmlns="http://www.w3.org/2000/svg">
<circle cx="30" cy="30" r="30" fill="#E4E7EC"/>
<g filter="url(#filter0_d_4_2523)">
<path d="M42.6924 22.2113H36.7415C37.0469 22.0196 37.3363 21.8035 37.6068 21.5652C38.0149 21.2016 38.3436 20.7578 38.5724 20.2615C38.8012 19.7651 38.9252 19.227 38.9367 18.6806C38.9544 18.0795 38.8492 17.4811 38.6275 16.9221C38.4058 16.3631 38.0724 15.8553 37.6476 15.4296C37.2228 15.004 36.7156 14.6696 36.157 14.4469C35.5984 14.2242 35.0003 14.1178 34.3992 14.1344C33.8527 14.1459 33.3146 14.2698 32.8182 14.4987C32.3219 14.7275 31.8781 15.0562 31.5145 15.4642C30.8464 16.2526 30.3327 17.1598 30.0001 18.1383C29.6683 17.1605 29.1555 16.2539 28.4886 15.4657C28.1248 15.057 27.6806 14.7278 27.1837 14.4987C26.6869 14.2697 26.1481 14.1456 25.6011 14.1344C24.9996 14.1171 24.4009 14.2228 23.8418 14.445C23.2826 14.6673 22.7748 15.0015 22.3494 15.427C21.924 15.8525 21.59 16.3605 21.3679 16.9197C21.1458 17.479 21.0403 18.0777 21.0578 18.6791C21.0693 19.2255 21.1932 19.7637 21.4221 20.26C21.6509 20.7564 21.9796 21.2002 22.3876 21.5637C22.6579 21.8024 22.9474 22.0185 23.253 22.2099H17.3078C17.0425 22.2099 16.7798 22.2622 16.5347 22.3637C16.2897 22.4653 16.067 22.6142 15.8795 22.8018C15.692 22.9895 15.5433 23.2122 15.4419 23.4574C15.3405 23.7025 15.2884 23.9653 15.2886 24.2306V28.8459C15.2886 29.3815 15.5013 29.8951 15.88 30.2738C16.2587 30.6524 16.7723 30.8652 17.3078 30.8652H17.5963V40.3844C17.5963 40.9199 17.809 41.4335 18.1877 41.8122C18.5664 42.1909 19.08 42.4036 19.6155 42.4036H40.3847C40.9203 42.4036 41.4339 42.1909 41.8125 41.8122C42.1912 41.4335 42.404 40.9199 42.404 40.3844V30.8652H42.6924C43.228 30.8652 43.7416 30.6524 44.1202 30.2738C44.4989 29.8951 44.7117 29.3815 44.7117 28.8459V24.2306C44.7117 23.695 44.4989 23.1814 44.1202 22.8027C43.7416 22.4241 43.228 22.2113 42.6924 22.2113ZM31.1208 20.6248C31.4453 18.8767 32.028 17.4878 32.8068 16.608C33.0153 16.3779 33.2688 16.1933 33.5517 16.0655C33.8346 15.9377 34.1407 15.8695 34.4511 15.8652H34.5304C34.8892 15.8652 35.2444 15.9372 35.5749 16.077C35.9054 16.2167 36.2045 16.4214 36.4545 16.6788C36.7045 16.9362 36.9003 17.2411 37.0304 17.5755C37.1604 17.91 37.2221 18.2671 37.2117 18.6258C37.2068 18.9364 37.1379 19.2428 37.0093 19.5257C36.8808 19.8086 36.6953 20.0619 36.4645 20.27C34.9184 21.6344 32.2963 22.0426 30.9145 22.1608C30.9506 21.744 31.0097 21.2133 31.1208 20.6248ZM23.5746 16.6512C24.0781 16.1496 24.7592 15.8671 25.4698 15.8652H25.5492C25.8598 15.8701 26.1662 15.9389 26.4491 16.0675C26.732 16.196 26.9853 16.3815 27.1934 16.6123C28.5578 18.1584 28.966 20.7806 29.0842 22.1623C28.6674 22.1262 28.1367 22.0642 27.554 21.956C25.8059 21.6344 24.4169 21.0488 23.5371 20.2685C23.306 20.061 23.1202 19.808 22.9913 19.5253C22.8625 19.2426 22.7935 18.9364 22.7886 18.6258C22.7786 18.2605 22.8432 17.897 22.9783 17.5576C23.1135 17.2181 23.3164 16.9097 23.5746 16.6512ZM17.0193 28.8459V24.2306C17.0193 24.1541 17.0497 24.0807 17.1038 24.0266C17.1579 23.9725 17.2313 23.9421 17.3078 23.9421H29.1347V29.1344H17.3078C17.2313 29.1344 17.1579 29.104 17.1038 29.0499C17.0497 28.9958 17.0193 28.9224 17.0193 28.8459ZM19.327 40.3844V30.8652H29.1347V40.6729H19.6155C19.539 40.6729 19.4656 40.6425 19.4115 40.5884C19.3574 40.5343 19.327 40.4609 19.327 40.3844ZM40.6732 40.3844C40.6732 40.4609 40.6428 40.5343 40.5887 40.5884C40.5346 40.6425 40.4612 40.6729 40.3847 40.6729H30.8655V30.8652H40.6732V40.3844ZM42.9809 28.8459C42.9809 28.9224 42.9505 28.9958 42.8964 29.0499C42.8423 29.104 42.7689 29.1344 42.6924 29.1344H30.8655V23.9421H42.6924C42.7689 23.9421 42.8423 23.9725 42.8964 24.0266C42.9505 24.0807 42.9809 24.1541 42.9809 24.2306V28.8459Z" fill="#ED1C24"/>
</g>
<defs>
<filter id="filter0_d_4_2523" x="7.53857" y="11.5386" width="44.9231" height="44.9231" filterUnits="userSpaceOnUse" color-interpolation-filters="sRGB">
<feFlood flood-opacity="0" result="BackgroundImageFix"/>
<feColorMatrix in="SourceAlpha" type="matrix" values="0 0 0 0 0 0 0 0 0 0 0 0 0 0 0 0 0 0 127 0" result="hardAlpha"/>
<feOffset dy="4"/>
<feGaussianBlur stdDeviation="2"/>
<feComposite in2="hardAlpha" operator="out"/>
<feColorMatrix type="matrix" values="0 0 0 0 0 0 0 0 0 0 0 0 0 0 0 0 0 0 0.25 0"/>
<feBlend mode="normal" in2="BackgroundImageFix" result="effect1_dropShadow_4_2523"/>
<feBlend mode="normal" in="SourceGraphic" in2="effect1_dropShadow_4_2523" result="shape"/>
</filter>
</defs>
</svg>
